<svg xmlns="http://www.w3.org/2000/svg" xmlns:xlink="http://www.w3.org/1999/xlink" x="0" y="0" width="702.2222290039062" height="276.12847900390625" style="
        width:702.2222290039062px;
        height:276.12847900390625px;
        background: #FFF;
        fill: none;
">
        <svg xmlns="http://www.w3.org/2000/svg"/>
        
        <svg xmlns="http://www.w3.org/2000/svg" class="role-diagram-draw-area" style="overflow: visible;"><g class="shapes-region" style="stroke: black; fill: none;"><g class="composite-shape"><path class="real" d=" M455.98,168.38 L466.21,184.1 L445.75,184.1 Z" style="stroke-width: 1; stroke: rgb(0, 0, 0); fill: none; fill-opacity: 1;"/></g><g class="arrow-line"><path class="connection real" stroke-dasharray="" d="  M446.1,184.3 L440.12,188.53" style="stroke: rgb(0, 0, 0); stroke-width: 1; fill: none; fill-opacity: 1;"/></g><g class="arrow-line"><path class="connection real" stroke-dasharray="" d="  M451.24,184.59 L445.26,188.81" style="stroke: rgb(0, 0, 0); stroke-width: 1; fill: none; fill-opacity: 1;"/></g><g class="arrow-line"><path class="connection real" stroke-dasharray="" d="  M456.38,184.16 L450.4,188.39" style="stroke: rgb(0, 0, 0); stroke-width: 1; fill: none; fill-opacity: 1;"/></g><g class="arrow-line"><path class="connection real" stroke-dasharray="" d="  M461.38,184.3 L455.4,188.53" style="stroke: rgb(0, 0, 0); stroke-width: 1; fill: none; fill-opacity: 1;"/></g><g class="arrow-line"><path class="connection real" stroke-dasharray="" d="  M466.55,184.3 L460.57,188.53" style="stroke: rgb(0, 0, 0); stroke-width: 1; fill: none; fill-opacity: 1;"/></g><g class="composite-shape"><path class="real" d=" M183.18,168.98 L193.41,184.7 L172.95,184.7 Z" style="stroke-width: 1; stroke: rgb(0, 0, 0); fill: none; fill-opacity: 1;"/></g><g class="composite-shape"><path class="real" d=" M180.37,173.23 C178.25,171.94 177.59,169.17 178.89,167.05 L250.37,50.25 C251.67,48.13 254.44,47.47 256.56,48.77 L256.56,48.77 C258.68,50.06 259.35,52.83 258.05,54.95 L186.56,171.75 C185.26,173.87 182.49,174.53 180.37,173.23 Z" style="stroke-width: 1; stroke: rgb(155, 155, 155); stroke-opacity: 1; fill: none; fill-opacity: 1;"/></g><g class="composite-shape"><path class="real" d=" M318.21,174.75 C316.09,173.45 315.43,170.68 316.73,168.56 L388.21,51.77 C389.51,49.65 392.28,48.99 394.4,50.28 L394.4,50.28 C396.52,51.58 397.19,54.35 395.89,56.47 L324.4,173.26 C323.1,175.38 320.33,176.05 318.21,174.75 Z" style="stroke-width: 1; stroke: rgb(155, 155, 155); stroke-opacity: 1; fill: none; fill-opacity: 1;"/></g><g class="composite-shape"><path class="real" d=" M178.3,169.4 C178.3,166.91 180.31,164.9 182.8,164.9 L319.73,164.9 C322.22,164.9 324.23,166.91 324.23,169.4 L324.23,169.4 C324.23,171.89 322.22,173.9 319.73,173.9 L182.8,173.9 C180.31,173.9 178.3,171.89 178.3,169.4 Z" style="stroke-width: 1; stroke: rgb(155, 155, 155); stroke-opacity: 1; fill: none; fill-opacity: 1;"/></g><g class="composite-shape"><path class="real" d=" M249.3,53 C249.3,50.51 251.31,48.5 253.8,48.5 L390.73,48.5 C393.22,48.5 395.23,50.51 395.23,53 L395.23,53 C395.23,55.49 393.22,57.5 390.73,57.5 L253.8,57.5 C251.31,57.5 249.3,55.49 249.3,53 Z" style="stroke-width: 1; stroke: rgb(155, 155, 155); stroke-opacity: 1; fill: none; fill-opacity: 1;"/></g><g class="composite-shape"><path class="real" d=" M251.95,48.86 C254.12,47.64 256.86,48.41 258.08,50.58 L323.32,166.36 C324.54,168.52 323.77,171.27 321.61,172.49 L321.61,172.49 C319.44,173.71 316.7,172.94 315.48,170.78 L250.24,54.99 C249.02,52.83 249.78,50.08 251.95,48.86 Z" style="stroke-width: 1; stroke: rgb(155, 155, 155); stroke-opacity: 1; fill: none; fill-opacity: 1;"/></g><g class="composite-shape"><path class="real" d=" M251.3,53 C251.3,51.62 252.42,50.5 253.8,50.5 C255.18,50.5 256.3,51.62 256.3,53 C256.3,54.38 255.18,55.5 253.8,55.5 C252.42,55.5 251.3,54.38 251.3,53 Z" style="stroke-width: 1; stroke: none; stroke-opacity: 1; fill: rgb(74, 74, 74); fill-opacity: 1;"/></g><g class="composite-shape"><path class="real" d=" M388.23,53 C388.23,51.62 389.35,50.5 390.73,50.5 C392.11,50.5 393.23,51.62 393.23,53 C393.23,54.38 392.11,55.5 390.73,55.5 C389.35,55.5 388.23,54.38 388.23,53 Z" style="stroke-width: 1; stroke: none; stroke-opacity: 1; fill: rgb(74, 74, 74); fill-opacity: 1;"/></g><g class="composite-shape"><path class="real" d=" M317.48,168.78 C317.48,167.4 318.6,166.28 319.98,166.28 C321.36,166.28 322.48,167.4 322.48,168.78 C322.48,170.16 321.36,171.28 319.98,171.28 C318.6,171.28 317.48,170.16 317.48,168.78 Z" style="stroke-width: 1; stroke: none; stroke-opacity: 1; fill: rgb(74, 74, 74); fill-opacity: 1;"/></g><g class="composite-shape"><path class="real" d=" M180.68,168.98 C180.68,167.6 181.8,166.48 183.18,166.48 C184.56,166.48 185.68,167.6 185.68,168.98 C185.68,170.36 184.56,171.48 183.18,171.48 C181.8,171.48 180.68,170.36 180.68,168.98 Z" style="stroke-width: 1; stroke: none; stroke-opacity: 1; fill: rgb(74, 74, 74); fill-opacity: 1;"/></g><g class="arrow-line"><path class="connection real" stroke-dasharray="" d="  M172.95,184.7 L166.98,188.93" style="stroke: rgb(0, 0, 0); stroke-width: 1; fill: none; fill-opacity: 1;"/></g><g class="arrow-line"><path class="connection real" stroke-dasharray="" d="  M178.1,184.99 L172.12,189.21" style="stroke: rgb(0, 0, 0); stroke-width: 1; fill: none; fill-opacity: 1;"/></g><g class="arrow-line"><path class="connection real" stroke-dasharray="" d="  M183.24,184.56 L177.26,188.79" style="stroke: rgb(0, 0, 0); stroke-width: 1; fill: none; fill-opacity: 1;"/></g><g class="arrow-line"><path class="connection real" stroke-dasharray="" d="  M188.24,184.7 L182.26,188.93" style="stroke: rgb(0, 0, 0); stroke-width: 1; fill: none; fill-opacity: 1;"/></g><g class="arrow-line"><path class="connection real" stroke-dasharray="" d="  M193.41,184.7 L187.43,188.93" style="stroke: rgb(0, 0, 0); stroke-width: 1; fill: none; fill-opacity: 1;"/></g><g class="arrow-line"><path class="connection real" stroke-dasharray="" d="  M253.8,16 L253.8,51" style="stroke: rgb(208, 2, 27); stroke-opacity: 1; stroke-width: 1; fill: none; fill-opacity: 1;"/><g stroke="rgb(208,2,27)" stroke-opacity="1" transform="matrix(-1.8369701987210297e-16,-1,1,-1.8369701987210297e-16,253.80000000000013,53)" style="stroke: rgb(208, 2, 27); stroke-width: 1;"><path d=" M10.93,-3.29 Q4.96,-0.45 0,0 Q4.96,0.45 10.93,3.29"/></g></g><g class="grouped-shape"><g class="arrow-line"><path class="connection real" stroke-dasharray="" d="  M284,36 L284,17.4" style="stroke: rgb(74, 144, 226); stroke-opacity: 1; stroke-width: 1; fill: none; fill-opacity: 1;"/><g stroke="rgb(74,144,226)" stroke-opacity="1" transform="matrix(3.061616997868383e-16,1,-1,3.061616997868383e-16,284,15.399999999999977)" style="stroke: rgb(74, 144, 226); stroke-width: 1;"><path d=" M6.56,-1.97 Q2.98,-0.27 0,0 Q2.98,0.27 6.56,1.97"/></g></g><g class="arrow-line"><path class="connection real" stroke-dasharray="" d="  M284,36 L300.2,36" style="stroke: rgb(74, 144, 226); stroke-opacity: 1; stroke-width: 1; fill: none; fill-opacity: 1;"/><g stroke="rgb(74,144,226)" stroke-opacity="1" transform="matrix(-1,1.2246467991473532e-16,-1.2246467991473532e-16,-1,302.20000000000005,36.00000000000001)" style="stroke: rgb(74, 144, 226); stroke-width: 1;"><path d=" M6.56,-1.97 Q2.98,-0.27 0,0 Q2.98,0.27 6.56,1.97"/></g></g></g><g class="composite-shape"><path class="real" d=" M388.27,48.57 C390.43,47.35 393.18,48.12 394.4,50.28 L459.64,166.07 C460.86,168.23 460.09,170.98 457.93,172.2 L457.93,172.2 C455.76,173.42 453.02,172.65 451.8,170.48 L386.56,54.7 C385.34,52.54 386.1,49.79 388.27,48.57 Z" style="stroke-width: 1; stroke: rgb(155, 155, 155); stroke-opacity: 1; fill: none; fill-opacity: 1;"/></g><g class="composite-shape"><path class="real" d=" M314.23,169.4 C314.23,166.91 316.25,164.9 318.73,164.9 L455.67,164.9 C458.15,164.9 460.17,166.91 460.17,169.4 L460.17,169.4 C460.17,171.89 458.15,173.9 455.67,173.9 L318.73,173.9 C316.25,173.9 314.23,171.89 314.23,169.4 Z" style="stroke-width: 1; stroke: rgb(155, 155, 155); stroke-opacity: 1; fill: none; fill-opacity: 1;"/></g><g class="composite-shape"><path class="real" d=" M453.17,168.4 C453.17,167.02 454.29,165.9 455.67,165.9 C457.05,165.9 458.17,167.02 458.17,168.4 C458.17,169.78 457.05,170.9 455.67,170.9 C454.29,170.9 453.17,169.78 453.17,168.4 Z" style="stroke-width: 1; stroke: none; stroke-opacity: 1; fill: rgb(74, 74, 74); fill-opacity: 1;"/></g><g class="grouped-shape"><g class="arrow-line"><path class="connection real" stroke-dasharray="" d="  M419.6,32.51 L419.6,13.91" style="stroke: rgb(74, 144, 226); stroke-opacity: 1; stroke-width: 1; fill: none; fill-opacity: 1;"/><g stroke="rgb(74,144,226)" stroke-opacity="1" transform="matrix(3.061616997868383e-16,1,-1,3.061616997868383e-16,419.6,11.91250000000008)" style="stroke: rgb(74, 144, 226); stroke-width: 1;"><path d=" M6.56,-1.97 Q2.98,-0.27 0,0 Q2.98,0.27 6.56,1.97"/></g></g><g class="arrow-line"><path class="connection real" stroke-dasharray="" d="  M419.6,32.51 L435.8,32.51" style="stroke: rgb(74, 144, 226); stroke-opacity: 1; stroke-width: 1; fill: none; fill-opacity: 1;"/><g stroke="rgb(74,144,226)" stroke-opacity="1" transform="matrix(-1,1.2246467991473532e-16,-1.2246467991473532e-16,-1,437.80000000000007,32.51250000000006)" style="stroke: rgb(74, 144, 226); stroke-width: 1;"><path d=" M6.56,-1.97 Q2.98,-0.27 0,0 Q2.98,0.27 6.56,1.97"/></g></g></g><g class="grouped-shape"><g class="arrow-line"><path class="connection real" stroke-dasharray="" d="  M439.2,217.71 L439.2,199.11" style="stroke: rgb(74, 144, 226); stroke-opacity: 1; stroke-width: 1; fill: none; fill-opacity: 1;"/><g stroke="rgb(74,144,226)" stroke-opacity="1" transform="matrix(3.061616997868383e-16,1,-1,3.061616997868383e-16,439.2000000000001,197.11250000000004)" style="stroke: rgb(74, 144, 226); stroke-width: 1;"><path d=" M6.56,-1.97 Q2.98,-0.27 0,0 Q2.98,0.27 6.56,1.97"/></g></g><g class="arrow-line"><path class="connection real" stroke-dasharray="" d="  M439.2,217.71 L455.4,217.71" style="stroke: rgb(74, 144, 226); stroke-opacity: 1; stroke-width: 1; fill: none; fill-opacity: 1;"/><g stroke="rgb(74,144,226)" stroke-opacity="1" transform="matrix(-1,1.2246467991473532e-16,-1.2246467991473532e-16,-1,457.4000000000001,217.71250000000003)" style="stroke: rgb(74, 144, 226); stroke-width: 1;"><path d=" M6.56,-1.97 Q2.98,-0.27 0,0 Q2.98,0.27 6.56,1.97"/></g></g></g><g class="grouped-shape"><g class="arrow-line"><path class="connection real" stroke-dasharray="" d="  M166.45,220.91 L166.45,202.31" style="stroke: rgb(74, 144, 226); stroke-opacity: 1; stroke-width: 1; fill: none; fill-opacity: 1;"/><g stroke="rgb(74,144,226)" stroke-opacity="1" transform="matrix(3.061616997868383e-16,1,-1,3.061616997868383e-16,166.45152963480797,200.3125)" style="stroke: rgb(74, 144, 226); stroke-width: 1;"><path d=" M6.56,-1.97 Q2.98,-0.27 0,0 Q2.98,0.27 6.56,1.97"/></g></g><g class="arrow-line"><path class="connection real" stroke-dasharray="" d="  M166.45,220.91 L182.65,220.91" style="stroke: rgb(74, 144, 226); stroke-opacity: 1; stroke-width: 1; fill: none; fill-opacity: 1;"/><g stroke="rgb(74,144,226)" stroke-opacity="1" transform="matrix(-1,1.2246467991473532e-16,-1.2246467991473532e-16,-1,184.65152963480807,220.91249999999997)" style="stroke: rgb(74, 144, 226); stroke-width: 1;"><path d=" M6.56,-1.97 Q2.98,-0.27 0,0 Q2.98,0.27 6.56,1.97"/></g></g></g><g class="grouped-shape"><g class="arrow-line"><path class="connection real" stroke-dasharray="" d="  M306.85,219.71 L306.85,201.11" style="stroke: rgb(74, 144, 226); stroke-opacity: 1; stroke-width: 1; fill: none; fill-opacity: 1;"/><g stroke="rgb(74,144,226)" stroke-opacity="1" transform="matrix(3.061616997868383e-16,1,-1,3.061616997868383e-16,306.851529634808,199.11249999999998)" style="stroke: rgb(74, 144, 226); stroke-width: 1;"><path d=" M6.56,-1.97 Q2.98,-0.27 0,0 Q2.98,0.27 6.56,1.97"/></g></g><g class="arrow-line"><path class="connection real" stroke-dasharray="" d="  M306.85,219.71 L323.05,219.71" style="stroke: rgb(74, 144, 226); stroke-opacity: 1; stroke-width: 1; fill: none; fill-opacity: 1;"/><g stroke="rgb(74,144,226)" stroke-opacity="1" transform="matrix(-1,1.2246467991473532e-16,-1.2246467991473532e-16,-1,325.05152963480805,219.7125)" style="stroke: rgb(74, 144, 226); stroke-width: 1;"><path d=" M6.56,-1.97 Q2.98,-0.27 0,0 Q2.98,0.27 6.56,1.97"/></g></g></g><g class="arrow-line"><path class="connection real" stroke-dasharray="" d="  M183.18,168.98 L207.46,128.29" style="stroke: rgb(126, 211, 33); stroke-opacity: 1; stroke-width: 1; fill: none; fill-opacity: 1;"/><g stroke="none" fill="rgb(126,211,33)" fill-opacity="1" transform="matrix(-0.5124925450106137,0.8586916741814515,-0.8586916741814515,-0.5124925450106137,209,125.7125)" style="stroke: none; fill: rgb(126, 211, 33); stroke-width: 1;"><path d=" M5.36,-2.57 L0,0 L5.36,2.57 L3.56,0 Z"/></g></g><g class="arrow-line"><path class="connection real" stroke-dasharray="" d="  M183.18,168.98 L231.2,169.67" style="stroke: rgb(126, 211, 33); stroke-opacity: 1; stroke-width: 1; fill: none; fill-opacity: 1;"/><g stroke="none" fill="rgb(126,211,33)" fill-opacity="1" transform="matrix(-0.999895076364634,-0.014485726138606773,0.014485726138606773,-0.999895076364634,234.2,169.71250000000003)" style="stroke: none; fill: rgb(126, 211, 33); stroke-width: 1;"><path d=" M5.36,-2.57 L0,0 L5.36,2.57 L3.56,0 Z"/></g></g><g class="arrow-line"><path class="connection real" stroke-dasharray="" d="  M253.8,53 L301.82,53.69" style="stroke: rgb(126, 211, 33); stroke-opacity: 1; stroke-width: 1; fill: none; fill-opacity: 1;"/><g stroke="none" fill="rgb(126,211,33)" fill-opacity="1" transform="matrix(-0.999895076364634,-0.014485726138606773,0.014485726138606773,-0.999895076364634,304.82069858877645,53.73534984675006)" style="stroke: none; fill: rgb(126, 211, 33); stroke-width: 1;"><path d=" M5.36,-2.57 L0,0 L5.36,2.57 L3.56,0 Z"/></g></g><g class="arrow-line"><path class="connection real" stroke-dasharray="" d="  M253.8,53 L277.55,95.89" style="stroke: rgb(126, 211, 33); stroke-opacity: 1; stroke-width: 1; fill: none; fill-opacity: 1;"/><g stroke="none" fill="rgb(126,211,33)" fill-opacity="1" transform="matrix(-0.4843516040028367,-0.8748734329603792,0.8748734329603792,-0.4843516040028367,279,98.51249999999999)" style="stroke: none; fill: rgb(126, 211, 33); stroke-width: 1;"><path d=" M5.36,-2.57 L0,0 L5.36,2.57 L3.56,0 Z"/></g></g><g class="arrow-line"><path class="connection real" stroke-dasharray="" d="  M319.98,168.78 L342.95,133.82" style="stroke: rgb(126, 211, 33); stroke-opacity: 1; stroke-width: 1; fill: none; fill-opacity: 1;"/><g stroke="none" fill="rgb(126,211,33)" fill-opacity="1" transform="matrix(-0.5491686855389782,0.8357115260802562,-0.8357115260802562,-0.5491686855389782,344.59999999999997,131.3125)" style="stroke: none; fill: rgb(126, 211, 33); stroke-width: 1;"><path d=" M5.36,-2.57 L0,0 L5.36,2.57 L3.56,0 Z"/></g></g><g class="arrow-line"><path class="connection real" stroke-dasharray="" d="  M319.98,168.78 L357.6,168.9" style="stroke: rgb(126, 211, 33); stroke-opacity: 1; stroke-width: 1; fill: none; fill-opacity: 1;"/><g stroke="none" fill="rgb(126,211,33)" fill-opacity="1" transform="matrix(-0.9999945016606114,-0.0033161195010587073,0.0033161195010587073,-0.9999945016606114,360.6,168.91250000000002)" style="stroke: none; fill: rgb(126, 211, 33); stroke-width: 1;"><path d=" M5.36,-2.57 L0,0 L5.36,2.57 L3.56,0 Z"/></g></g><g class="arrow-line"><path class="connection real" stroke-dasharray="" d="  M390.73,53 L409.54,86.69" style="stroke: rgb(126, 211, 33); stroke-opacity: 1; stroke-width: 1; fill: none; fill-opacity: 1;"/><g stroke="none" fill="rgb(126,211,33)" fill-opacity="1" transform="matrix(-0.48740253135401995,-0.8731774003200573,0.8731774003200573,-0.48740253135401995,411,89.3125)" style="stroke: none; fill: rgb(126, 211, 33); stroke-width: 1;"><path d=" M5.36,-2.57 L0,0 L5.36,2.57 L3.56,0 Z"/></g></g><g class="arrow-line"><path class="connection real" stroke-dasharray="" d="  M205.11,53 L251.8,53" style="stroke: rgb(208, 2, 27); stroke-opacity: 1; stroke-width: 1; fill: none; fill-opacity: 1;"/><g stroke="rgb(208,2,27)" stroke-opacity="1" transform="matrix(-1,1.2246467991473532e-16,-1.2246467991473532e-16,-1,253.80000000000013,53)" style="stroke: rgb(208, 2, 27); stroke-width: 1;"><path d=" M10.93,-3.29 Q4.96,-0.45 0,0 Q4.96,0.45 10.93,3.29"/></g></g><g class="arrow-line"><path class="connection real" stroke-dasharray="" d="  M390.6,16.4 L390.6,51.4" style="stroke: rgb(208, 2, 27); stroke-opacity: 1; stroke-width: 1; fill: none; fill-opacity: 1;"/><g stroke="rgb(208,2,27)" stroke-opacity="1" transform="matrix(-1.8369701987210297e-16,-1,1,-1.8369701987210297e-16,390.6000000000001,53.39999999999998)" style="stroke: rgb(208, 2, 27); stroke-width: 1;"><path d=" M10.93,-3.29 Q4.96,-0.45 0,0 Q4.96,0.45 10.93,3.29"/></g></g><g class="arrow-line"><path class="connection real" stroke-dasharray="" d="  M181.11,226.11 L181.11,254.11" style="stroke: rgb(155, 155, 155); stroke-opacity: 1; stroke-width: 1; fill: none; fill-opacity: 1;"/></g><g class="arrow-line"><path class="connection real" stroke-dasharray="" d="  M319.31,225.31 L319.31,253.31" style="stroke: rgb(155, 155, 155); stroke-opacity: 1; stroke-width: 1; fill: none; fill-opacity: 1;"/></g><g class="arrow-line"><path class="connection real" stroke-dasharray="" d="  M181.11,239.31 L457.51,239.31" style="stroke: rgb(155, 155, 155); stroke-opacity: 1; stroke-width: 1; fill: none; fill-opacity: 1;"/></g><g class="arrow-line"><path class="connection real" stroke-dasharray="" d="  M457.51,225.71 L457.51,253.71" style="stroke: rgb(155, 155, 155); stroke-opacity: 1; stroke-width: 1; fill: none; fill-opacity: 1;"/></g><g class="grouped-shape"><g class="arrow-line"><path class="connection real" stroke-dasharray="" d="  M489.81,169.81 L517.81,169.81" style="stroke: rgb(155, 155, 155); stroke-opacity: 1; stroke-width: 1; fill: none; fill-opacity: 1;"/></g><g class="arrow-line"><path class="connection real" stroke-dasharray="" d="  M503.81,169.81 L503.81,49.8" style="stroke: rgb(155, 155, 155); stroke-opacity: 1; stroke-width: 1; fill: none; fill-opacity: 1;"/></g><g class="arrow-line"><path class="connection real" stroke-dasharray="" d="  M490.21,49.8 L518.21,49.8" style="stroke: rgb(155, 155, 155); stroke-opacity: 1; stroke-width: 1; fill: none; fill-opacity: 1;"/></g></g><g class="grouped-shape"><g class="arrow-line"><path class="connection real" stroke-dasharray="" d="  M180.6,67.8 L180.6,95.8" style="stroke: rgb(155, 155, 155); stroke-opacity: 1; stroke-width: 1; fill: none; fill-opacity: 1;"/></g><g class="arrow-line"><path class="connection real" stroke-dasharray="" d="  M180.6,81.8 L253.51,81.8" style="stroke: rgb(155, 155, 155); stroke-opacity: 1; stroke-width: 1; fill: none; fill-opacity: 1;"/></g><g class="arrow-line"><path class="connection real" stroke-dasharray="" d="  M253.51,68.2 L253.51,96.2" style="stroke: rgb(155, 155, 155); stroke-opacity: 1; stroke-width: 1; fill: none; fill-opacity: 1;"/></g></g><g class="grouped-shape"><g class="arrow-line"><path class="connection real" stroke-dasharray="" d="  M388.4,76.8 L388.4,104.8" style="stroke: rgb(155, 155, 155); stroke-opacity: 1; stroke-width: 1; fill: none; fill-opacity: 1;"/></g><g class="arrow-line"><path class="connection real" stroke-dasharray="" d="  M388.4,90.8 L453.91,90.8" style="stroke: rgb(155, 155, 155); stroke-opacity: 1; stroke-width: 1; fill: none; fill-opacity: 1;"/></g><g class="arrow-line"><path class="connection real" stroke-dasharray="" d="  M453.91,77.2 L453.91,105.2" style="stroke: rgb(155, 155, 155); stroke-opacity: 1; stroke-width: 1; fill: none; fill-opacity: 1;"/></g></g><g/></g><g/><g/><g/></svg>
        <svg xmlns="http://www.w3.org/2000/svg" xmlns:xlink="http://www.w3.org/1999/xlink" width="700.0000610351562" height="273.90625" style="width:700.0000610351562px;height:273.90625px;font-family:Asana-Math, Asana;background:#FFF;"><g><g><g><g transform="matrix(1,0,0,1,171.52777099609375,172.6180419921875)"><path transform="matrix(0.0105,0,0,-0.0105,0,0)" d="M90 554C150 554 184 563 220 577L220 59L95 59L95 0L425 0L425 59L300 59L300 678L281 678C254 653 205 612 90 612Z" stroke="rgb(128,128,128)" stroke-opacity="1" stroke-width="8" fill="rgb(128,128,128)" fill-opacity="1"></path></g></g></g></g><g><g><g><g transform="matrix(1,0,0,1,245.138916015625,48.607635498046875)"><path transform="matrix(0.0105,0,0,-0.0105,0,0)" d="M41 514L84 459C88 461 100 613 222 613C308 613 366 545 366 461C366 354 275 283 179 194L49 65L49 0L449 0L449 71L121 70C201 146 249 192 282 221C386 313 449 367 449 464C449 577 368 678 235 678C119 678 66 598 41 514Z" stroke="rgb(128,128,128)" stroke-opacity="1" stroke-width="8" fill="rgb(128,128,128)" fill-opacity="1"></path></g></g></g></g><g><g><g><g transform="matrix(1,0,0,1,380.138916015625,47.80902099609375)"><path transform="matrix(0.0105,0,0,-0.0105,0,0)" d="M41 81C118 -17 214 -22 245 -22C370 -22 457 76 457 180C457 250 414 321 318 354C413 408 429 482 429 525C429 608 351 678 248 678C209 678 118 668 55 569L91 514C96 524 101 534 107 543C138 589 190 618 246 618C306 618 347 581 347 525C347 464 303 403 238 391C231 390 224 390 166 385L166 323L239 323C328 323 367 253 367 182C367 101 318 40 244 40C215 40 122 47 52 142Z" stroke="rgb(128,128,128)" stroke-opacity="1" stroke-width="8" fill="rgb(128,128,128)" fill-opacity="1"></path></g></g></g></g><g><g><g><g transform="matrix(1,0,0,1,327.93408203125,174.6146240234375)"><path transform="matrix(0.0105,0,0,-0.0105,0,0)" d="M27 171L292 171L292 0L372 0L372 171L471 171L471 232L372 232L372 655L280 655L38 250C28 233 27 231 27 219ZM105 232C230 447 284 533 298 618L298 232Z" stroke="rgb(128,128,128)" stroke-opacity="1" stroke-width="8" fill="rgb(128,128,128)" fill-opacity="1"></path></g></g></g></g><g transform="matrix(0.5402403204776549,-0.8415107819453063,0.8415107819453063,0.5402403204776549,8.512183169316586,224.60788153924568)"><g><g><g transform="matrix(1,0,0,1,205.43408203125,108.7725830078125)"><path transform="matrix(0.0105,0,0,-0.0105,0,0)" d="M90 554C150 554 184 563 220 577L220 59L95 59L95 0L425 0L425 59L300 59L300 678L281 678C254 653 205 612 90 612Z" stroke="rgb(0,0,0)" stroke-opacity="1" stroke-width="8" fill="rgb(0,0,0)" fill-opacity="1"></path></g></g></g></g><g transform="matrix(0.5402403204776549,-0.8415107819453063,0.8415107819453063,0.5402403204776549,63.90106862920908,340.77936845611856)"><g><g><g transform="matrix(1,0,0,1,339.4444580078125,116.16842651367188)"><path transform="matrix(0.0105,0,0,-0.0105,0,0)" d="M38 76C81 16 153 -22 229 -22C345 -22 449 73 449 204C449 331 360 427 259 427C202 427 172 402 152 386L152 591L416 591L416 655L79 655L79 286L147 286C158 307 188 366 257 366C309 366 359 322 359 205C359 75 281 40 228 40C196 40 122 50 72 132Z" stroke="rgb(0,0,0)" stroke-opacity="1" stroke-width="8" fill="rgb(0,0,0)" fill-opacity="1"></path></g></g></g></g><g><g><g><g transform="matrix(1,0,0,1,256.076416015625,163.295166015625)"><path transform="matrix(0.0105,0,0,-0.0105,0,0)" d="M41 514L84 459C88 461 100 613 222 613C308 613 366 545 366 461C366 354 275 283 179 194L49 65L49 0L449 0L449 71L121 70C201 146 249 192 282 221C386 313 449 367 449 464C449 577 368 678 235 678C119 678 66 598 41 514Z" stroke="rgb(0,0,0)" stroke-opacity="1" stroke-width="8" fill="rgb(0,0,0)" fill-opacity="1"></path></g></g></g></g><g><g><g><g transform="matrix(1,0,0,1,323.6805419921875,45.69097900390625)"><path transform="matrix(0.0105,0,0,-0.0105,0,0)" d="M27 171L292 171L292 0L372 0L372 171L471 171L471 232L372 232L372 655L280 655L38 250C28 233 27 231 27 219ZM105 232C230 447 284 533 298 618L298 232Z" stroke="rgb(0,0,0)" stroke-opacity="1" stroke-width="8" fill="rgb(0,0,0)" fill-opacity="1"></path></g></g></g></g><g transform="matrix(0.47408820904711624,0.880477353509162,-0.880477353509162,0.47408820904711624,231.66405851534432,-205.80151960485523)"><g><g><g transform="matrix(1,0,0,1,283.732666015625,95.28298950195312)"><path transform="matrix(0.0105,0,0,-0.0105,0,0)" d="M41 81C118 -17 214 -22 245 -22C370 -22 457 76 457 180C457 250 414 321 318 354C413 408 429 482 429 525C429 608 351 678 248 678C209 678 118 668 55 569L91 514C96 524 101 534 107 543C138 589 190 618 246 618C306 618 347 581 347 525C347 464 303 403 238 391C231 390 224 390 166 385L166 323L239 323C328 323 367 253 367 182C367 101 318 40 244 40C215 40 122 47 52 142Z" stroke="rgb(0,0,0)" stroke-opacity="1" stroke-width="8" fill="rgb(0,0,0)" fill-opacity="1"></path></g></g></g></g><g><g><g><g transform="matrix(1,0,0,1,306.37158203125,37.62152099609375)"><path transform="matrix(0.0075,0,0,-0.0075,0,0)" d="M90 554C150 554 184 563 220 577L220 59L95 59L95 0L425 0L425 59L300 59L300 678L281 678C254 653 205 612 90 612Z" stroke="rgb(74,144,226)" stroke-opacity="1" stroke-width="8" fill="rgb(74,144,226)" fill-opacity="1"></path></g></g></g></g><g><g><g><g transform="matrix(1,0,0,1,281.5625,12.65625)"><path transform="matrix(0.0075,0,0,-0.0075,0,0)" d="M41 514L84 459C88 461 100 613 222 613C308 613 366 545 366 461C366 354 275 283 179 194L49 65L49 0L449 0L449 71L121 70C201 146 249 192 282 221C386 313 449 367 449 464C449 577 368 678 235 678C119 678 66 598 41 514Z" stroke="rgb(74,144,226)" stroke-opacity="1" stroke-width="8" fill="rgb(74,144,226)" fill-opacity="1"></path></g></g></g></g><g><g><g><g transform="matrix(1,0,0,1,463.8021240234375,161.28125)"><path transform="matrix(0.0105,0,0,-0.0105,0,0)" d="M42 323C42 35 168 -22 252 -22C307 -22 348 -3 388 40C438 93 457 146 457 224C457 290 445 344 404 401C377 439 346 462 295 462C232 462 168 433 126 380C131 479 184 619 309 619C350 619 375 613 416 598L416 658C386 669 352 678 309 678C155 678 42 521 42 323ZM127 220L130 220C129 229 128 238 128 247C128 329 179 401 256 401C279 401 317 396 347 349C370 313 375 279 375 218C375 196 375 173 370 151C361 108 327 40 251 40C158 40 135 146 127 220Z" stroke="rgb(128,128,128)" stroke-opacity="1" stroke-width="8" fill="rgb(128,128,128)" fill-opacity="1"></path></g></g></g></g><g transform="matrix(0.9999834136273441,-0.005759554687996444,0.005759554687996444,0.9999834136273441,-0.8911956761913871,2.2718097577030676)"><g><g><g transform="matrix(1,0,0,1,389.6180419921875,160.12677001953125)"><path transform="matrix(0.0105,0,0,-0.0105,0,0)" d="M41 585L389 585C219 403 151 188 151 -11L236 -11C236 208 316 427 457 590L457 655L41 656Z" stroke="rgb(0,0,0)" stroke-opacity="1" stroke-width="8" fill="rgb(0,0,0)" fill-opacity="1"></path></g></g></g></g><g transform="matrix(0.4750099826591499,0.8799804068126483,-0.8799804068126483,0.4750099826591499,323.7296639866778,-324.57524618134755)"><g><g><g transform="matrix(1,0,0,1,429.513916015625,113.28646850585938)"><path transform="matrix(0.0105,0,0,-0.0105,0,0)" d="M42 323C42 35 168 -22 252 -22C307 -22 348 -3 388 40C438 93 457 146 457 224C457 290 445 344 404 401C377 439 346 462 295 462C232 462 168 433 126 380C131 479 184 619 309 619C350 619 375 613 416 598L416 658C386 669 352 678 309 678C155 678 42 521 42 323ZM127 220L130 220C129 229 128 238 128 247C128 329 179 401 256 401C279 401 317 396 347 349C370 313 375 279 375 218C375 196 375 173 370 151C361 108 327 40 251 40C158 40 135 146 127 220Z" stroke="rgb(0,0,0)" stroke-opacity="1" stroke-width="8" fill="rgb(0,0,0)" fill-opacity="1"></path></g></g></g></g><g><g><g><g transform="matrix(1,0,0,1,417.170166015625,9.166656494140625)"><path transform="matrix(0.0075,0,0,-0.0075,0,0)" d="M27 171L292 171L292 0L372 0L372 171L471 171L471 232L372 232L372 655L280 655L38 250C28 233 27 231 27 219ZM105 232C230 447 284 533 298 618L298 232Z" stroke="rgb(74,144,226)" stroke-opacity="1" stroke-width="8" fill="rgb(74,144,226)" fill-opacity="1"></path></g></g></g></g><g><g><g><g transform="matrix(1,0,0,1,441.9617919921875,34.1319580078125)"><path transform="matrix(0.0075,0,0,-0.0075,0,0)" d="M41 81C118 -17 214 -22 245 -22C370 -22 457 76 457 180C457 250 414 321 318 354C413 408 429 482 429 525C429 608 351 678 248 678C209 678 118 668 55 569L91 514C96 524 101 534 107 543C138 589 190 618 246 618C306 618 347 581 347 525C347 464 303 403 238 391C231 390 224 390 166 385L166 323L239 323C328 323 367 253 367 182C367 101 318 40 244 40C215 40 122 47 52 142Z" stroke="rgb(74,144,226)" stroke-opacity="1" stroke-width="8" fill="rgb(74,144,226)" fill-opacity="1"></path></g></g></g></g><g><g><g><g transform="matrix(1,0,0,1,436.7708740234375,194.357666015625)"><path transform="matrix(0.0075,0,0,-0.0075,0,0)" d="M90 554C150 554 184 563 220 577L220 59L95 59L95 0L425 0L425 59L300 59L300 678L281 678C254 653 205 612 90 612ZM541 310C541 26 666 -22 749 -22C774 -22 794 -17 812 -11C952 41 958 227 958 324L958 345C958 624 832 678 749 678C724 678 704 673 686 666C545 613 541 422 541 327ZM619 310L619 370C619 583 697 616 749 616C801 616 880 584 880 370L880 311C880 77 802 39 750 39C698 39 619 76 619 310Z" stroke="rgb(74,144,226)" stroke-opacity="1" stroke-width="8" fill="rgb(74,144,226)" fill-opacity="1"></path></g></g></g></g><g><g><g><g transform="matrix(1,0,0,1,461.5625,219.34027099609375)"><path transform="matrix(0.0075,0,0,-0.0075,0,0)" d="M42 435C42 365 54 313 96 254C123 216 153 193 204 193C272 193 328 223 373 276C362 134 298 41 207 40C151 40 126 62 103 78L72 24C108 -3 143 -22 205 -22C342 -22 457 124 457 333C457 621 334 678 252 678C197 678 155 660 114 618C60 563 42 508 42 435ZM124 435C124 460 124 483 130 507C140 549 175 618 253 618C344 618 367 503 372 436L370 436C371 427 371 419 371 410C371 327 320 255 243 255C201 255 175 274 156 301C127 343 124 381 124 435Z" stroke="rgb(74,144,226)" stroke-opacity="1" stroke-width="8" fill="rgb(74,144,226)" fill-opacity="1"></path></g></g></g></g><g><g><g><g transform="matrix(1,0,0,1,164.01043701171875,197.5694580078125)"><path transform="matrix(0.0075,0,0,-0.0075,0,0)" d="M41 180C41 73 131 -22 249 -22C369 -22 457 75 457 179C457 276 381 335 318 354C406 386 443 443 443 503C443 591 363 678 249 678C138 678 55 595 55 503C55 419 127 370 180 354C81 318 41 250 41 180ZM122 181C122 285 193 323 249 323C324 323 376 266 376 182C376 91 320 40 249 40C173 40 122 96 122 181ZM125 502C125 572 175 619 249 619C321 619 373 574 373 502C373 433 323 385 248 385C177 385 125 431 125 502Z" stroke="rgb(74,144,226)" stroke-opacity="1" stroke-width="8" fill="rgb(74,144,226)" fill-opacity="1"></path></g></g></g></g><g><g><g><g transform="matrix(1,0,0,1,188.8194580078125,222.53472900390625)"><path transform="matrix(0.0075,0,0,-0.0075,0,0)" d="M41 585L389 585C219 403 151 188 151 -11L236 -11C236 208 316 427 457 590L457 655L41 656Z" stroke="rgb(74,144,226)" stroke-opacity="1" stroke-width="8" fill="rgb(74,144,226)" fill-opacity="1"></path></g></g></g></g><g><g><g><g transform="matrix(1,0,0,1,304.4097900390625,196.35418701171875)"><path transform="matrix(0.0075,0,0,-0.0075,0,0)" d="M42 323C42 35 168 -22 252 -22C307 -22 348 -3 388 40C438 93 457 146 457 224C457 290 445 344 404 401C377 439 346 462 295 462C232 462 168 433 126 380C131 479 184 619 309 619C350 619 375 613 416 598L416 658C386 669 352 678 309 678C155 678 42 521 42 323ZM127 220L130 220C129 229 128 238 128 247C128 329 179 401 256 401C279 401 317 396 347 349C370 313 375 279 375 218C375 196 375 173 370 151C361 108 327 40 251 40C158 40 135 146 127 220Z" stroke="rgb(74,144,226)" stroke-opacity="1" stroke-width="8" fill="rgb(74,144,226)" fill-opacity="1"></path></g></g></g></g><g><g><g><g transform="matrix(1,0,0,1,329.21875,221.3367919921875)"><path transform="matrix(0.0075,0,0,-0.0075,0,0)" d="M38 76C81 16 153 -22 229 -22C345 -22 449 73 449 204C449 331 360 427 259 427C202 427 172 402 152 386L152 591L416 591L416 655L79 655L79 286L147 286C158 307 188 366 257 366C309 366 359 322 359 205C359 75 281 40 228 40C196 40 122 50 72 132Z" stroke="rgb(74,144,226)" stroke-opacity="1" stroke-width="8" fill="rgb(74,144,226)" fill-opacity="1"></path></g></g></g></g><g><g><g><g transform="matrix(1,0,0,1,259.1492919921875,28.304864501953126)"><path transform="matrix(0.0136,0,0,-0.0136,0,0)" d="M105 664L160 662C184 661 195 653 195 635L112 125C95 34 94 31 54 28L13 25L9 -3L51 -2C92 -1 123 0 141 0C158 0 187 -1 227 -2L280 -3L283 25L218 28C192 29 182 37 182 58C182 67 183 74 186 93L284 648C320 654 336 656 355 656C457 656 506 612 506 519C506 411 434 323 346 323C324 323 304 328 267 342L269 311C306 293 326 288 355 288C484 288 594 405 594 541C594 642 531 695 412 692L108 692Z" stroke="rgb(208,2,27)" stroke-opacity="1" stroke-width="8" fill="rgb(208,2,27)" fill-opacity="1"></path></g></g><g><g><g><g><g transform="matrix(1,0,0,1,267.8472900390625,30.700572509765625)"><path transform="matrix(0.009519999999999999,0,0,-0.009519999999999999,0,0)" d="M418 -3L418 27L366 30C311 33 301 44 301 96L301 700L60 598L67 548L217 614L217 96C217 44 206 33 152 30L96 27L96 -3C250 0 250 0 261 0C292 0 402 -3 418 -3Z" stroke="rgb(208,2,27)" stroke-opacity="1" stroke-width="8" fill="rgb(208,2,27)" fill-opacity="1"></path></g></g></g></g></g></g></g><g><g><g><g transform="matrix(1,0,0,1,207.951416015625,46.707635498046876)"><path transform="matrix(0.0136,0,0,-0.0136,0,0)" d="M105 664L160 662C184 661 195 653 195 635L112 125C95 34 94 31 54 28L13 25L9 -3L51 -2C92 -1 123 0 141 0C158 0 187 -1 227 -2L280 -3L283 25L218 28C192 29 182 37 182 58C182 67 183 74 186 93L284 648C320 654 336 656 355 656C457 656 506 612 506 519C506 411 434 323 346 323C324 323 304 328 267 342L269 311C306 293 326 288 355 288C484 288 594 405 594 541C594 642 531 695 412 692L108 692Z" stroke="rgb(208,2,27)" stroke-opacity="1" stroke-width="8" fill="rgb(208,2,27)" fill-opacity="1"></path></g></g><g><g><g><g><g transform="matrix(1,0,0,1,216.6492919921875,49.10334350585937)"><path transform="matrix(0.009519999999999999,0,0,-0.009519999999999999,0,0)" d="M16 23L16 -3C203 -3 203 0 239 0C275 0 275 -3 468 -3L468 82C353 77 307 81 122 77L304 270C401 373 431 428 431 503C431 618 353 689 226 689C154 689 105 669 56 619L39 483L68 483L81 529C97 587 133 612 200 612C286 612 341 558 341 473C341 398 299 324 186 204Z" stroke="rgb(208,2,27)" stroke-opacity="1" stroke-width="8" fill="rgb(208,2,27)" fill-opacity="1"></path></g></g></g></g></g></g></g><g><g><g><g transform="matrix(1,0,0,1,395.9375,28.704156494140626)"><path transform="matrix(0.0136,0,0,-0.0136,0,0)" d="M105 664L160 662C184 661 195 653 195 635L112 125C95 34 94 31 54 28L13 25L9 -3L51 -2C92 -1 123 0 141 0C158 0 187 -1 227 -2L280 -3L283 25L218 28C192 29 182 37 182 58C182 67 183 74 186 93L284 648C320 654 336 656 355 656C457 656 506 612 506 519C506 411 434 323 346 323C324 323 304 328 267 342L269 311C306 293 326 288 355 288C484 288 594 405 594 541C594 642 531 695 412 692L108 692Z" stroke="rgb(208,2,27)" stroke-opacity="1" stroke-width="8" fill="rgb(208,2,27)" fill-opacity="1"></path></g></g><g><g><g><g><g transform="matrix(1,0,0,1,404.6353759765625,31.099864501953125)"><path transform="matrix(0.009519999999999999,0,0,-0.009519999999999999,0,0)" d="M462 224C462 345 355 366 308 374C388 436 418 482 418 541C418 630 344 689 233 689C165 689 120 670 72 622L43 498L74 498L92 554C103 588 166 622 218 622C283 622 336 569 336 506C336 431 277 368 206 368C198 368 187 369 174 370L159 371L147 318L154 312C192 329 211 334 238 334C321 334 369 281 369 190C369 88 308 21 215 21C169 21 128 36 98 64C74 86 61 109 42 163L15 153C36 92 44 56 50 6C103 -12 147 -20 184 -20C307 -20 462 87 462 224Z" stroke="rgb(208,2,27)" stroke-opacity="1" stroke-width="8" fill="rgb(208,2,27)" fill-opacity="1"></path></g></g></g></g></g></g></g><g><g><g><g transform="matrix(1,0,0,1,245.5382080078125,235.0944580078125)"><path transform="matrix(0.0119,0,0,-0.0119,0,0)" d="M271 204L242 77C238 60 236 42 236 26C236 4 245 -9 260 -9C283 -9 324 17 406 85L399 106C375 86 346 59 324 59C315 59 309 68 309 82C309 87 309 90 310 93L402 472L392 481L359 463C318 478 301 482 274 482C246 482 226 477 199 464C137 433 104 403 79 354C35 265 4 145 4 67C4 23 19 -11 38 -11C75 -11 155 41 271 204ZM319 414C297 305 278 253 244 201C187 117 126 59 94 59C82 59 76 72 76 99C76 163 104 280 139 360C163 415 186 433 234 433C257 433 275 429 319 414Z" stroke="rgb(155,155,155)" stroke-opacity="1" stroke-width="8" fill="rgb(155,155,155)" fill-opacity="1"></path></g></g></g></g><g><g><g><g transform="matrix(1,0,0,1,385.9375,233.89652099609376)"><path transform="matrix(0.0119,0,0,-0.0119,0,0)" d="M235 722L223 733C171 707 135 698 63 691L59 670L107 670C131 670 141 663 141 646C141 639 140 628 139 622L38 71C37 68 37 64 37 61C37 22 85 -11 140 -11C177 -11 228 8 271 39C367 107 433 244 433 376C433 414 424 453 412 468C405 477 392 482 377 482C353 482 323 474 295 460C244 433 211 403 149 324ZM322 424C348 424 361 401 361 352C361 288 340 202 310 137C277 68 237 36 183 36C137 36 112 59 112 101C112 135 127 276 208 361C241 395 293 424 322 424Z" stroke="rgb(155,155,155)" stroke-opacity="1" stroke-width="8" fill="rgb(155,155,155)" fill-opacity="1"></path></g></g></g></g><g><g><g><g transform="matrix(1,0,0,1,212.7430419921875,78.28888549804688)"><path transform="matrix(0.0119,0,0,-0.0119,0,0)" d="M342 330L365 330C373 395 380 432 389 458C365 473 330 482 293 482C248 483 175 463 118 400C64 352 25 241 25 136C25 40 67 -11 147 -11C201 -11 249 9 304 54L354 95L346 115L331 105C259 57 221 40 186 40C130 40 101 80 101 159C101 267 136 371 185 409C206 425 230 433 261 433C306 433 342 414 342 390Z" stroke="rgb(155,155,155)" stroke-opacity="1" stroke-width="8" fill="rgb(155,155,155)" fill-opacity="1"></path></g></g></g></g><g><g><g><g transform="matrix(1,0,0,1,422.7430419921875,85.0944580078125)"><path transform="matrix(0.0119,0,0,-0.0119,0,0)" d="M483 722L471 733C419 707 383 698 311 691L307 670L355 670C379 670 389 663 389 646C389 638 388 629 387 622L359 468C329 477 302 482 277 482C208 482 114 410 68 323C37 265 17 170 17 86C17 21 32 -11 61 -11C88 -11 125 6 159 33C213 77 246 116 313 217L290 126C279 82 274 50 274 24C274 3 283 -9 300 -9C317 -9 341 3 375 28L456 88L446 107L402 76C388 66 372 59 363 59C355 59 349 68 349 82C349 90 350 99 357 128ZM114 59C98 59 89 73 89 98C89 224 135 380 184 418C197 428 216 433 243 433C287 433 316 427 349 410L337 351C300 171 159 59 114 59Z" stroke="rgb(155,155,155)" stroke-opacity="1" stroke-width="8" fill="rgb(155,155,155)" fill-opacity="1"></path></g></g></g></g><g><g><g><g transform="matrix(1,0,0,1,507.5521240234375,110.28543701171876)"><path transform="matrix(0.0119,0,0,-0.0119,0,0)" d="M236 722L224 733C179 711 138 697 64 691L60 670L108 670C126 670 142 667 142 647C142 641 142 632 140 622L98 388C78 272 36 80 10 2L17 -9L86 7C94 64 108 164 148 236C193 317 296 414 338 414C349 414 360 407 360 393C360 375 355 342 345 303L294 107C288 85 281 55 281 31C281 6 291 -9 312 -9C344 -9 412 41 471 85L461 103L435 86C412 71 386 56 374 56C367 56 361 65 361 76C361 88 364 101 368 116L432 372C438 398 443 423 443 447C443 464 437 482 411 482C376 482 299 437 231 374C198 343 172 308 144 273L140 275Z" stroke="rgb(155,155,155)" stroke-opacity="1" stroke-width="8" fill="rgb(155,155,155)" fill-opacity="1"></path></g></g></g></g></svg>
</svg>
